<?xml version="1.0" standalone="no"?>
<!DOCTYPE svg PUBLIC "-//W3C//DTD SVG 20010904//EN"
 "http://www.w3.org/TR/2001/REC-SVG-20010904/DTD/svg10.dtd">
<svg version="1.0" xmlns="http://www.w3.org/2000/svg"
 width="500.000000pt" height="374.000000pt" viewBox="0 0 500.000000 374.000000"
 preserveAspectRatio="xMidYMid meet">

<g transform="translate(0.000000,374.000000) scale(0.100000,-0.100000)"
fill="#000000" stroke="none">
<path d="M0 1870 l0 -1870 2500 0 2500 0 -1 403 c-1 221 -4 392 -6 380 -5 -25
-55 -40 -92 -28 -18 5 -21 14 -21 56 l0 49 54 0 c52 0 55 -1 59 -27 2 -16 5
403 6 929 1 908 0 957 -17 951 -9 -3 -23 -11 -30 -16 -11 -8 -12 -5 -6 17 5
23 1 33 -20 52 -92 86 -74 242 36 304 l38 21 0 325 0 324 -2500 0 -2500 0 0
-1870z m2651 1185 c159 -21 390 -77 376 -92 -3 -3 -32 4 -65 16 -33 11 -104
29 -158 40 -295 59 -625 54 -972 -14 -26 -5 -26 -5 -4 5 26 11 230 47 302 53
101 9 431 3 521 -8z m-921 -83 c-139 -51 -245 -125 -278 -194 -18 -39 -20 -66
-22 -275 l-1 -233 63 0 c218 -1 339 -64 417 -218 108 -215 28 -488 -172 -583
-63 -29 -117 -39 -232 -42 l-70 -2 -3 -259 c-4 -303 -1 -314 83 -399 59 -59
132 -101 245 -142 464 -167 1182 -100 1433 133 85 80 88 91 87 389 0 153 -5
278 -12 308 -13 58 -78 315 -116 460 l-27 100 -3 -292 -2 -293 -95 0 -95 0 -1
178 c-1 97 -1 211 -1 252 0 41 1 150 1 243 l1 167 165 0 c146 0 165 -2 174
-17 8 -13 10 9 11 80 0 65 3 96 10 92 7 -4 9 -54 7 -138 -4 -129 -3 -133 39
-285 24 -85 45 -156 48 -159 5 -5 13 21 101 360 l18 67 168 0 169 0 0 -420 0
-420 -120 0 -120 0 0 283 c0 155 -4 275 -9 267 -4 -8 -38 -135 -76 -282 l-68
-267 -75 -3 -75 -3 -2 -270 c-1 -217 -5 -277 -17 -306 -101 -234 -638 -377
-1178 -314 -334 39 -593 159 -659 305 -19 42 -21 65 -21 318 l0 272 -105 0
-105 0 2 418 3 417 103 3 102 3 0 239 c0 131 4 250 9 263 17 43 71 96 142 138
71 42 179 86 214 87 11 1 -14 -11 -55 -26z m2732 -711 c59 -18 130 -72 166
-125 17 -26 32 -51 32 -55 0 -4 -46 -21 -102 -39 l-103 -31 -25 28 c-34 40
-60 51 -116 51 -51 0 -84 -20 -84 -51 0 -26 34 -44 120 -64 158 -37 223 -62
262 -102 20 -21 44 -55 53 -75 21 -51 19 -153 -4 -203 -23 -52 -89 -110 -160
-143 -52 -25 -67 -27 -191 -27 -131 0 -137 1 -201 31 -72 34 -124 89 -158 164
-15 33 -17 46 -8 51 7 3 61 14 121 25 85 14 111 15 114 6 2 -7 15 -26 28 -42
38 -45 158 -62 202 -27 20 16 14 55 -11 71 -12 9 -62 25 -111 36 -230 55 -310
124 -309 265 1 130 77 219 223 261 52 15 206 12 262 -5z m-3627 -2 c144 -26
224 -113 225 -242 0 -90 -42 -166 -112 -203 -16 -8 -28 -20 -28 -26 0 -6 32
-87 70 -179 39 -93 70 -171 70 -174 0 -3 -64 -4 -141 -3 l-142 3 -61 158 -61
157 -42 0 -43 0 0 -160 0 -160 -125 0 -125 0 -2 178 c-2 98 -2 287 0 420 l3
242 228 0 c125 0 254 -5 286 -11z m1745 0 c35 -5 79 -19 96 -30 48 -29 86 -92
92 -149 8 -84 -4 -120 -59 -172 l-49 -46 44 -26 c70 -41 88 -74 88 -159 0
-112 -38 -183 -121 -221 -43 -19 -65 -21 -313 -24 l-268 -3 0 414 c0 227 3
417 7 420 10 11 412 8 483 -4z m2410 -1699 l0 -50 -55 0 -55 0 0 50 0 50 55 0
55 0 0 -50z"/>
<path d="M1475 2072 c-3 -3 -5 -106 -5 -230 l0 -225 57 6 c69 7 100 29 132 91
21 40 24 61 24 135 -1 74 -5 96 -27 139 -14 29 -36 58 -49 66 -22 14 -122 28
-132 18z"/>
<path d="M574 2076 c-3 -7 -4 -42 -2 -77 l3 -64 72 -3 c51 -2 81 2 103 13 53
27 53 103 0 130 -38 20 -168 21 -176 1z"/>
<path d="M2330 2021 l0 -71 80 0 c91 0 120 17 120 68 0 48 -31 66 -121 71
l-79 3 0 -71z"/>
<path d="M2337 1763 c-3 -5 -5 -38 -6 -75 l-1 -68 79 0 c95 0 107 4 127 41 13
26 13 32 -1 59 -9 17 -27 35 -41 40 -30 12 -151 13 -157 3z"/>
<path d="M4962 3050 c-88 -54 -105 -178 -35 -261 l27 -31 17 21 c12 15 19 17
22 9 3 -7 6 53 6 135 1 81 0 147 -1 147 -2 0 -18 -9 -36 -20z"/>
</g>
</svg>
